<svg width="224" height="82" viewBox="0 0 224 82" fill="none" xmlns="http://www.w3.org/2000/svg">
<g clip-path="url(#clip0_1_33)">
<path opacity="0.2" d="M37.4162 0H37.4161C16.7518 0 0 16.7518 0 37.4161V37.4162C0 58.0805 16.7518 74.8323 37.4161 74.8323H37.4162C58.0805 74.8323 74.8323 58.0805 74.8323 37.4162V37.4161C74.8323 16.7518 58.0805 0 37.4162 0Z" fill="white"/>
<path d="M82.6265 56.1238C82.6265 42.3476 71.4586 31.1797 57.6824 31.1797C43.9061 31.1797 32.7383 42.3476 32.7383 56.1238C32.7383 69.9 43.9061 81.0679 57.6824 81.0679C71.4586 81.0679 82.6265 69.9 82.6265 56.1238Z" fill="white"/>
<path d="M216.985 35.102C217.618 34.038 218.454 33.2147 219.493 32.632C220.557 32.024 221.811 31.72 223.255 31.72V36.204H222.153C220.455 36.204 219.163 36.6347 218.277 37.496C217.415 38.3573 216.985 39.852 216.985 41.98V53H212.653V32.062H216.985V35.102Z" fill="white"/>
<path d="M198.805 31.72C200.401 31.72 201.82 32.062 203.061 32.746C204.328 33.43 205.316 34.4433 206.025 35.786C206.76 37.1287 207.127 38.75 207.127 40.65V53H202.833V41.296C202.833 39.4213 202.364 37.99 201.427 37.002C200.49 35.9887 199.21 35.482 197.589 35.482C195.968 35.482 194.676 35.9887 193.713 37.002C192.776 37.99 192.307 39.4213 192.307 41.296V53H187.975V24.88H192.307V34.494C193.042 33.6073 193.966 32.9233 195.081 32.442C196.221 31.9607 197.462 31.72 198.805 31.72Z" fill="white"/>
<path d="M175.276 53.342C173.63 53.342 172.148 53.0507 170.83 52.468C169.538 51.86 168.512 51.0493 167.752 50.036C166.992 48.9973 166.587 47.8447 166.536 46.578H171.02C171.096 47.4647 171.514 48.212 172.274 48.82C173.06 49.4027 174.035 49.694 175.2 49.694C176.416 49.694 177.354 49.466 178.012 49.01C178.696 48.5287 179.038 47.9207 179.038 47.186C179.038 46.4007 178.658 45.818 177.898 45.438C177.164 45.058 175.986 44.64 174.364 44.184C172.794 43.7533 171.514 43.3353 170.526 42.93C169.538 42.5247 168.677 41.904 167.942 41.068C167.233 40.232 166.878 39.13 166.878 37.762C166.878 36.6473 167.208 35.634 167.866 34.722C168.525 33.7847 169.462 33.05 170.678 32.518C171.92 31.986 173.338 31.72 174.934 31.72C177.316 31.72 179.228 32.328 180.672 33.544C182.142 34.7347 182.927 36.3687 183.028 38.446H178.696C178.62 37.5087 178.24 36.7613 177.556 36.204C176.872 35.6467 175.948 35.368 174.782 35.368C173.642 35.368 172.768 35.5833 172.16 36.014C171.552 36.4447 171.248 37.0147 171.248 37.724C171.248 38.2813 171.451 38.75 171.856 39.13C172.262 39.51 172.756 39.814 173.338 40.042C173.921 40.2447 174.782 40.5107 175.922 40.84C177.442 41.2453 178.684 41.6633 179.646 42.094C180.634 42.4993 181.483 43.1073 182.192 43.918C182.902 44.7287 183.269 45.8053 183.294 47.148C183.294 48.3387 182.965 49.4027 182.306 50.34C181.648 51.2773 180.71 52.012 179.494 52.544C178.304 53.076 176.898 53.342 175.276 53.342Z" fill="white"/>
<path d="M140.478 42.436C140.478 40.3333 140.909 38.4713 141.77 36.85C142.657 35.2287 143.848 33.9747 145.342 33.088C146.862 32.176 148.534 31.72 150.358 31.72C152.005 31.72 153.436 32.0493 154.652 32.708C155.894 33.3413 156.882 34.1393 157.616 35.102V32.062H161.986V53H157.616V49.884C156.882 50.872 155.881 51.6953 154.614 52.354C153.348 53.0127 151.904 53.342 150.282 53.342C148.484 53.342 146.837 52.886 145.342 51.974C143.848 51.0367 142.657 49.7447 141.77 48.098C140.909 46.426 140.478 44.5387 140.478 42.436ZM157.616 42.512C157.616 41.068 157.312 39.814 156.704 38.75C156.122 37.686 155.349 36.8753 154.386 36.318C153.424 35.7607 152.385 35.482 151.27 35.482C150.156 35.482 149.117 35.7607 148.154 36.318C147.192 36.85 146.406 37.648 145.798 38.712C145.216 39.7507 144.924 40.992 144.924 42.436C144.924 43.88 145.216 45.1467 145.798 46.236C146.406 47.3253 147.192 48.1613 148.154 48.744C149.142 49.3013 150.181 49.58 151.27 49.58C152.385 49.58 153.424 49.3013 154.386 48.744C155.349 48.1867 156.122 47.376 156.704 46.312C157.312 45.2227 157.616 43.956 157.616 42.512Z" fill="white"/>
<path d="M132.838 35.596V47.186C132.838 47.9713 133.015 48.5413 133.37 48.896C133.75 49.2253 134.383 49.39 135.27 49.39H137.93V53H134.51C132.559 53 131.064 52.544 130.026 51.632C128.987 50.72 128.468 49.238 128.468 47.186V35.596H125.998V32.062H128.468V26.856H132.838V32.062H137.93V35.596H132.838Z" fill="white"/>
<path d="M113.552 53.266C111.779 53.266 110.183 52.962 108.764 52.354C107.345 51.7207 106.231 50.834 105.42 49.694C104.609 48.554 104.204 47.224 104.204 45.704H108.84C108.941 46.844 109.385 47.7813 110.17 48.516C110.981 49.2507 112.108 49.618 113.552 49.618C115.047 49.618 116.212 49.2633 117.048 48.554C117.884 47.8193 118.302 46.882 118.302 45.742C118.302 44.8553 118.036 44.1333 117.504 43.576C116.997 43.0187 116.351 42.588 115.566 42.284C114.806 41.98 113.742 41.6507 112.374 41.296C110.651 40.84 109.245 40.384 108.156 39.928C107.092 39.4467 106.18 38.712 105.42 37.724C104.66 36.736 104.28 35.4187 104.28 33.772C104.28 32.252 104.66 30.922 105.42 29.782C106.18 28.642 107.244 27.768 108.612 27.16C109.98 26.552 111.563 26.248 113.362 26.248C115.921 26.248 118.011 26.894 119.632 28.186C121.279 29.4527 122.191 31.2007 122.368 33.43H117.58C117.504 32.4673 117.048 31.644 116.212 30.96C115.376 30.276 114.274 29.934 112.906 29.934C111.665 29.934 110.651 30.2507 109.866 30.884C109.081 31.5173 108.688 32.4293 108.688 33.62C108.688 34.4307 108.929 35.102 109.41 35.634C109.917 36.1407 110.55 36.546 111.31 36.85C112.07 37.154 113.109 37.4833 114.426 37.838C116.174 38.3193 117.593 38.8007 118.682 39.282C119.797 39.7633 120.734 40.5107 121.494 41.524C122.279 42.512 122.672 43.842 122.672 45.514C122.672 46.8567 122.305 48.1233 121.57 49.314C120.861 50.5047 119.809 51.4673 118.416 52.202C117.048 52.9113 115.427 53.266 113.552 53.266Z" fill="white"/>
</g>
<defs>
<clipPath id="clip0_1_33">
<rect width="224" height="82" fill="white"/>
</clipPath>
</defs>
</svg>
