<svg width="224" height="82" viewBox="0 0 224 82" fill="none" xmlns="http://www.w3.org/2000/svg">
<path opacity="0.2" d="M37.4162 0H37.4161C16.7518 0 0 16.7518 0 37.4161V37.4162C0 58.0805 16.7518 74.8323 37.4161 74.8323H37.4162C58.0805 74.8323 74.8323 58.0805 74.8323 37.4162V37.4161C74.8323 16.7518 58.0805 0 37.4162 0Z" fill="#FA7275"/>
<path d="M82.6265 56.1238C82.6265 42.3476 71.4586 31.1797 57.6824 31.1797C43.9061 31.1797 32.7383 42.3476 32.7383 56.1238C32.7383 69.9 43.9061 81.0679 57.6824 81.0679C71.4586 81.0679 82.6265 69.9 82.6265 56.1238Z" fill="#FA7275"/>
<path d="M214.985 35.102C215.618 34.038 216.454 33.2147 217.493 32.632C218.557 32.024 219.811 31.72 221.255 31.72V36.204H220.153C218.455 36.204 217.163 36.6347 216.277 37.496C215.415 38.3573 214.985 39.852 214.985 41.98V53H210.653V32.062H214.985V35.102Z" fill="#FA7275"/>
<path d="M196.805 31.72C198.401 31.72 199.82 32.062 201.061 32.746C202.328 33.43 203.316 34.4433 204.025 35.786C204.76 37.1287 205.127 38.75 205.127 40.65V53H200.833V41.296C200.833 39.4213 200.364 37.99 199.427 37.002C198.49 35.9887 197.21 35.482 195.589 35.482C193.968 35.482 192.676 35.9887 191.713 37.002C190.776 37.99 190.307 39.4213 190.307 41.296V53H185.975V24.88H190.307V34.494C191.042 33.6073 191.966 32.9233 193.081 32.442C194.221 31.9607 195.462 31.72 196.805 31.72Z" fill="#FA7275"/>
<path d="M173.276 53.342C171.63 53.342 170.148 53.0507 168.83 52.468C167.538 51.86 166.512 51.0493 165.752 50.036C164.992 48.9973 164.587 47.8447 164.536 46.578H169.02C169.096 47.4647 169.514 48.212 170.274 48.82C171.06 49.4027 172.035 49.694 173.2 49.694C174.416 49.694 175.354 49.466 176.012 49.01C176.696 48.5287 177.038 47.9207 177.038 47.186C177.038 46.4007 176.658 45.818 175.898 45.438C175.164 45.058 173.986 44.64 172.364 44.184C170.794 43.7533 169.514 43.3353 168.526 42.93C167.538 42.5247 166.677 41.904 165.942 41.068C165.233 40.232 164.878 39.13 164.878 37.762C164.878 36.6473 165.208 35.634 165.866 34.722C166.525 33.7847 167.462 33.05 168.678 32.518C169.92 31.986 171.338 31.72 172.934 31.72C175.316 31.72 177.228 32.328 178.672 33.544C180.142 34.7347 180.927 36.3687 181.028 38.446H176.696C176.62 37.5087 176.24 36.7613 175.556 36.204C174.872 35.6467 173.948 35.368 172.782 35.368C171.642 35.368 170.768 35.5833 170.16 36.014C169.552 36.4447 169.248 37.0147 169.248 37.724C169.248 38.2813 169.451 38.75 169.856 39.13C170.262 39.51 170.756 39.814 171.338 40.042C171.921 40.2447 172.782 40.5107 173.922 40.84C175.442 41.2453 176.684 41.6633 177.646 42.094C178.634 42.4993 179.483 43.1073 180.192 43.918C180.902 44.7287 181.269 45.8053 181.294 47.148C181.294 48.3387 180.965 49.4027 180.306 50.34C179.648 51.2773 178.71 52.012 177.494 52.544C176.304 53.076 174.898 53.342 173.276 53.342Z" fill="#FA7275"/>
<path d="M138.478 42.436C138.478 40.3333 138.909 38.4713 139.77 36.85C140.657 35.2287 141.848 33.9747 143.342 33.088C144.862 32.176 146.534 31.72 148.358 31.72C150.005 31.72 151.436 32.0493 152.652 32.708C153.894 33.3413 154.882 34.1393 155.616 35.102V32.062H159.986V53H155.616V49.884C154.882 50.872 153.881 51.6953 152.614 52.354C151.348 53.0127 149.904 53.342 148.282 53.342C146.484 53.342 144.837 52.886 143.342 51.974C141.848 51.0367 140.657 49.7447 139.77 48.098C138.909 46.426 138.478 44.5387 138.478 42.436ZM155.616 42.512C155.616 41.068 155.312 39.814 154.704 38.75C154.122 37.686 153.349 36.8753 152.386 36.318C151.424 35.7607 150.385 35.482 149.27 35.482C148.156 35.482 147.117 35.7607 146.154 36.318C145.192 36.85 144.406 37.648 143.798 38.712C143.216 39.7507 142.924 40.992 142.924 42.436C142.924 43.88 143.216 45.1467 143.798 46.236C144.406 47.3253 145.192 48.1613 146.154 48.744C147.142 49.3013 148.181 49.58 149.27 49.58C150.385 49.58 151.424 49.3013 152.386 48.744C153.349 48.1867 154.122 47.376 154.704 46.312C155.312 45.2227 155.616 43.956 155.616 42.512Z" fill="#FA7275"/>
<path d="M130.838 35.596V47.186C130.838 47.9713 131.015 48.5413 131.37 48.896C131.75 49.2253 132.383 49.39 133.27 49.39H135.93V53H132.51C130.559 53 129.064 52.544 128.026 51.632C126.987 50.72 126.468 49.238 126.468 47.186V35.596H123.998V32.062H126.468V26.856H130.838V32.062H135.93V35.596H130.838Z" fill="#FA7275"/>
<path d="M111.552 53.266C109.779 53.266 108.183 52.962 106.764 52.354C105.345 51.7207 104.231 50.834 103.42 49.694C102.609 48.554 102.204 47.224 102.204 45.704H106.84C106.941 46.844 107.385 47.7813 108.17 48.516C108.981 49.2507 110.108 49.618 111.552 49.618C113.047 49.618 114.212 49.2633 115.048 48.554C115.884 47.8193 116.302 46.882 116.302 45.742C116.302 44.8553 116.036 44.1333 115.504 43.576C114.997 43.0187 114.351 42.588 113.566 42.284C112.806 41.98 111.742 41.6507 110.374 41.296C108.651 40.84 107.245 40.384 106.156 39.928C105.092 39.4467 104.18 38.712 103.42 37.724C102.66 36.736 102.28 35.4187 102.28 33.772C102.28 32.252 102.66 30.922 103.42 29.782C104.18 28.642 105.244 27.768 106.612 27.16C107.98 26.552 109.563 26.248 111.362 26.248C113.921 26.248 116.011 26.894 117.632 28.186C119.279 29.4527 120.191 31.2007 120.368 33.43H115.58C115.504 32.4673 115.048 31.644 114.212 30.96C113.376 30.276 112.274 29.934 110.906 29.934C109.665 29.934 108.651 30.2507 107.866 30.884C107.081 31.5173 106.688 32.4293 106.688 33.62C106.688 34.4307 106.929 35.102 107.41 35.634C107.917 36.1407 108.55 36.546 109.31 36.85C110.07 37.154 111.109 37.4833 112.426 37.838C114.174 38.3193 115.593 38.8007 116.682 39.282C117.797 39.7633 118.734 40.5107 119.494 41.524C120.279 42.512 120.672 43.842 120.672 45.514C120.672 46.8567 120.305 48.1233 119.57 49.314C118.861 50.5047 117.809 51.4673 116.416 52.202C115.048 52.9113 113.427 53.266 111.552 53.266Z" fill="#FA7275"/>
</svg>
